<svg width="24" height="24" viewBox="0 0 24 24" fill="none" xmlns="http://www.w3.org/2000/svg">
<path d="M10.7324 10.4286C10.7324 11.9143 10.507 13.1905 10.0563 14.2571C9.60563 15.3619 9.02347 16.2571 8.30986 16.9429C7.59624 17.6667 6.78873 18.181 5.88732 18.4857C4.94835 18.8286 4.02817 19 3.12676 19L3.12676 17C4.10328 17 5.02347 16.6571 5.88732 15.9714C6.71361 15.3238 7.20188 14.4286 7.35211 13.2857C7.23943 13.3238 7.10798 13.3619 6.95775 13.4C6.84507 13.4381 6.71361 13.4762 6.56338 13.5143C6.37559 13.5524 6.16901 13.5714 5.94366 13.5714C4.8169 13.5714 3.87793 13.1333 3.12676 12.2571C2.37558 11.419 2 10.4286 2 9.28571C2 8.14286 2.39436 7.13334 3.1831 6.25714C3.93427 5.41905 4.94836 5 6.22535 5C7.65258 5 8.76056 5.53333 9.54929 6.6C10.338 7.70476 10.7324 8.98095 10.7324 10.4286ZM22 10.4286C22 11.9143 21.7746 13.1905 21.3239 14.2571C20.8732 15.3619 20.2911 16.2571 19.5775 16.9429C18.8638 17.6667 18.0563 18.181 17.1549 18.4857C16.216 18.8286 15.2958 19 14.3944 19L14.3944 17C15.3709 17 16.2911 16.6571 17.1549 15.9714C17.9812 15.3238 18.4695 14.4286 18.6197 13.2857C18.507 13.3238 18.3756 13.3619 18.2254 13.4C18.1127 13.4381 17.9812 13.4762 17.831 13.5143C17.6432 13.5524 17.4366 13.5714 17.2113 13.5714C16.0845 13.5714 15.1455 13.1333 14.3944 12.2571C13.6432 11.419 13.2676 10.4286 13.2676 9.28571C13.2676 8.14286 13.662 7.13333 14.4507 6.25714C15.2019 5.41905 16.216 5 17.493 5C18.9202 5 20.0282 5.53333 20.8169 6.6C21.6056 7.70476 22 8.98095 22 10.4286Z" fill="#111827"/>
</svg>
