<svg width="24" height="24" viewBox="0 0 24 24" fill="none" xmlns="http://www.w3.org/2000/svg">
<path d="M15.479 19.4294V21H8.52014V19.4294H10.1803L10.4727 16.7739L10.5416 16.1415V16.1289H13.4533L13.4576 16.1415L13.5264 16.7739L13.8188 19.4294H15.479Z" fill="#8B5CF6"/>
<path d="M13.5264 16.7739H10.4728L10.5416 16.1415V16.1289H13.4533L13.4576 16.1415L13.5264 16.7739Z" fill="#7C3AED"/>
<path d="M13.8171 19.4281H8.51929V20.9983H15.4798V19.4281H13.8171Z" fill="#A78BFA"/>
<path d="M21.2895 3H2.70965C2.52128 3.00044 2.34078 3.07363 2.20775 3.2035C2.07471 3.33337 2 3.50932 2 3.69276V15.4479C2 15.6313 2.07471 15.8073 2.20775 15.9371C2.34078 16.067 2.52128 16.1402 2.70965 16.1406H21.2465C21.3455 16.1407 21.4435 16.1217 21.5349 16.0849C21.6264 16.048 21.7094 15.994 21.7794 15.9258C21.8494 15.8577 21.9049 15.7768 21.9428 15.6877C21.9806 15.5987 22.0001 15.5032 22 15.4068V3.69276C22 3.50917 21.9252 3.33309 21.7919 3.2032C21.6587 3.07331 21.478 3.00022 21.2895 3Z" fill="#C4B5FD"/>
<path d="M3.32031 4.20044H20.6787V13.7625H3.32031V4.20044Z" fill="#4C1D95"/>
<path d="M20.6787 4.20044V12.8913H7.21695C6.53494 12.891 5.88096 12.627 5.3987 12.1574C4.91644 11.6877 4.64536 11.0509 4.64502 10.3867V4.20044H20.6787Z" fill="#6D28D9"/>
<path d="M18.0553 10.9269C18.0608 10.9135 18.068 10.9008 18.0768 10.8892V10.885C18.1979 10.6839 18.2959 10.4704 18.3692 10.2484C18.5687 9.62673 18.5649 8.96004 18.3582 8.3406C18.1515 7.72116 17.7522 7.1796 17.2156 6.79087C16.679 6.40214 16.0315 6.18546 15.3629 6.17084C14.6942 6.15621 14.0374 6.34435 13.4834 6.70922C13.1008 6.95926 12.7792 7.28812 12.5415 7.67254C12.3214 8.0248 12.1747 8.41584 12.1098 8.82333C12.045 9.23081 12.0632 9.64676 12.1634 10.0474C12.2637 10.448 12.444 10.8255 12.6941 11.1582C12.9442 11.491 13.2592 11.7724 13.621 11.9866C14.1356 12.2796 14.7196 12.4369 15.3156 12.4431C15.6526 12.4456 15.9875 12.3903 16.3048 12.2798C16.5305 12.1995 16.7492 12.1015 16.9585 11.9866L16.9628 11.9908L17.8875 12.8913H20.0681C19.1305 11.9824 18.0553 10.9311 18.0553 10.9269Z" fill="#4C1D95"/>
<path d="M21.625 14.9319C21.5921 15.0626 21.522 15.1816 21.4229 15.2753C21.2779 15.4147 21.0825 15.4929 20.8788 15.4929C20.6751 15.4929 20.4796 15.4147 20.3347 15.2753L18.7821 13.7633H20.6788V13.4911L21.4229 14.2157C21.5189 14.3068 21.5883 14.4212 21.6238 14.5471C21.6593 14.6729 21.6597 14.8058 21.625 14.9319Z" fill="#DDD6FE"/>
<path d="M20.6787 13.4902V13.7624H18.782L17.8875 12.8912H20.068C20.283 13.1007 20.4938 13.3059 20.6787 13.4902Z" fill="#5B21B6"/>
<path d="M21.7734 13.8948L18.4024 10.612C18.8092 9.95622 18.9555 9.17809 18.8136 8.4245C18.6717 7.6709 18.2513 6.99399 17.632 6.52154C17.0126 6.04909 16.2371 5.81381 15.4518 5.8601C14.6665 5.9064 13.9257 6.23108 13.3694 6.77284C12.8131 7.3146 12.4797 8.03596 12.4322 8.80072C12.3846 9.56549 12.6262 10.3207 13.1114 10.9239C13.5965 11.5271 14.2916 11.9364 15.0654 12.0746C15.8393 12.2128 16.6383 12.0704 17.3117 11.6741L20.6827 14.9574C20.8274 15.0982 21.0235 15.1773 21.2281 15.1773C21.4326 15.1773 21.6287 15.0982 21.7734 14.9574C21.9181 14.8165 21.9994 14.6254 21.9994 14.4261C21.9994 14.2268 21.9181 14.0357 21.7734 13.8948Z" fill="#A78BFA"/>
<path d="M15.6433 12.1252C17.4233 12.1252 18.8663 10.7199 18.8663 8.98643C18.8663 7.25293 17.4233 5.84766 15.6433 5.84766C13.8632 5.84766 12.4202 7.25293 12.4202 8.98643C12.4202 10.7199 13.8632 12.1252 15.6433 12.1252Z" fill="#8B5CF6"/>
<path d="M21.7734 13.8948L18.3998 10.6086C18.2648 10.8248 18.1041 11.0247 17.9211 11.2042C17.8326 11.2901 17.7392 11.3709 17.6411 11.4463L20.8595 14.5797C21.0041 14.7204 21.2002 14.7995 21.4046 14.7995C21.6091 14.7995 21.8051 14.7204 21.9497 14.5797L21.9902 14.5378C22.0083 14.4216 21.9982 14.3028 21.9605 14.1911C21.9229 14.0795 21.8588 13.978 21.7734 13.8948Z" fill="#C4B5FD"/>
<path d="M15.6432 5.84766C14.8752 5.84689 14.1323 6.11439 13.5496 6.60157C13.1416 7.23739 12.9808 7.99441 13.0963 8.73567C13.2118 9.47692 13.5959 10.1534 14.1792 10.6428C14.7624 11.1322 15.5063 11.402 16.2762 11.4036C17.0461 11.4052 17.7911 11.1383 18.3764 10.6513C18.6817 10.1762 18.8508 9.63008 18.8661 9.06978C18.8814 8.50948 18.7423 7.95542 18.4633 7.46516C18.1844 6.9749 17.7757 6.56632 17.2798 6.28188C16.7839 5.99743 16.2188 5.8475 15.6432 5.84766Z" fill="#C4B5FD"/>
</svg>
