<svg width="24" height="24" viewBox="0 0 24 24" fill="none" xmlns="http://www.w3.org/2000/svg">
<path d="M23.7512 13.1048L21.689 9.53772C21.638 9.44974 21.5636 9.37653 21.4734 9.32569C21.3832 9.27486 21.2805 9.24825 21.176 9.24863H17.9862V6.30379C17.986 6.2233 17.9527 6.14618 17.8937 6.08926C17.8347 6.03235 17.7548 6.00026 17.6713 6H4.92746C4.84402 6.00026 4.76408 6.03235 4.70508 6.08926C4.64608 6.14618 4.61282 6.2233 4.61255 6.30379V15.911C4.61255 16.028 4.66071 16.1401 4.74644 16.2228C4.83217 16.3055 4.94844 16.352 5.06968 16.352H23.7258C23.7618 16.3521 23.7976 16.3454 23.8309 16.3321C23.8643 16.3189 23.8945 16.2994 23.92 16.2748C23.9455 16.2502 23.9657 16.221 23.9795 16.1888C23.9932 16.1567 24.0002 16.1222 24.0001 16.0874V14.0358C24.0002 13.7102 23.9145 13.3898 23.7512 13.1048Z" fill="#8B5CF6"/>
<path d="M24.0002 14.0357V15.4077H20.0201C19.7744 15.4077 19.5387 15.3135 19.365 15.1459C19.1912 14.9783 19.0936 14.751 19.0936 14.514V9.24854H21.1761C21.2806 9.24816 21.3833 9.27477 21.4735 9.3256C21.5637 9.37644 21.6382 9.44965 21.6891 9.53763L23.7513 13.1048C23.9147 13.3897 24.0003 13.7101 24.0002 14.0357Z" fill="#A78BFA"/>
<path d="M22.6845 16.3535C22.6863 16.6907 22.5778 17.0199 22.3747 17.2943C22.1674 17.582 21.8703 17.7983 21.5267 17.9116C21.1831 18.025 20.8109 18.0295 20.4645 17.9244C20.118 17.8194 19.8154 17.6104 19.6008 17.3278C19.3861 17.0452 19.2707 16.7038 19.2712 16.3535C19.2712 15.9169 19.451 15.4981 19.7711 15.1894C20.0912 14.8806 20.5252 14.7072 20.9779 14.7072C21.4305 14.7072 21.8646 14.8806 22.1846 15.1894C22.5047 15.4981 22.6845 15.9169 22.6845 16.3535Z" fill="#A5B4FC"/>
<path d="M17.9862 6.30379V15.4568H7.59453C7.349 15.4568 7.10587 15.4101 6.87903 15.3195C6.6522 15.2289 6.44608 15.096 6.27247 14.9285C6.09885 14.761 5.96113 14.5622 5.86717 14.3434C5.77321 14.1245 5.72485 13.89 5.72485 13.6531V6H17.6713C17.7547 6.00026 17.8347 6.03235 17.8936 6.08926C17.9526 6.14618 17.9859 6.2233 17.9862 6.30379Z" fill="#A78BFA"/>
<path d="M22.6845 16.3535C22.6863 16.6907 22.5778 17.0199 22.3747 17.2943C22.2248 17.338 22.069 17.3595 21.9125 17.358C21.4599 17.3579 21.0259 17.1844 20.7058 16.8756C20.3858 16.5669 20.206 16.1482 20.2058 15.7116C20.2043 15.3707 20.3145 15.038 20.5207 14.761C20.7747 14.6939 21.0414 14.6841 21.2999 14.7326C21.5584 14.7811 21.8018 14.8865 22.0112 15.0406C22.2206 15.1947 22.3903 15.3934 22.5071 15.6211C22.6239 15.8488 22.6846 16.0994 22.6845 16.3535Z" fill="#C4B5FD"/>
<path d="M11.6778 16.3535C11.6775 16.6601 11.5885 16.9605 11.4208 17.2209C11.2531 17.4813 11.0134 17.6914 10.7286 17.8275C10.4438 17.9635 10.1253 18.0202 9.80897 17.991C9.49261 17.9619 9.19097 17.8481 8.93802 17.6625C8.68507 17.477 8.49086 17.2269 8.37727 16.9406C8.26368 16.6543 8.23522 16.343 8.29509 16.042C8.35496 15.7409 8.50079 15.4619 8.71615 15.2364C8.9315 15.011 9.20784 14.848 9.51402 14.7659C9.66211 14.7222 9.81629 14.7007 9.97116 14.7022C10.1956 14.7024 10.4179 14.7453 10.6252 14.8284C10.8325 14.9115 11.0208 15.0332 11.1793 15.1866C11.3378 15.34 11.4634 15.522 11.5489 15.7222C11.6345 15.9224 11.6783 16.1369 11.6778 16.3535Z" fill="#A5B4FC"/>
<path d="M11.6778 16.3535C11.6771 16.6903 11.5689 17.0188 11.3679 17.2943C11.2181 17.338 11.0623 17.3595 10.9057 17.358C10.4531 17.3578 10.0191 17.1843 9.69911 16.8756C9.37908 16.5669 9.19924 16.1482 9.1991 15.7116C9.19831 15.3723 9.30851 15.0413 9.51401 14.7659C9.6621 14.7222 9.81628 14.7007 9.97115 14.7022C10.1956 14.7024 10.4179 14.7453 10.6252 14.8284C10.8325 14.9115 11.0208 15.0332 11.1793 15.1866C11.3378 15.34 11.4634 15.522 11.5489 15.7222C11.6345 15.9224 11.6782 16.1369 11.6778 16.3535Z" fill="#C4B5FD"/>
<path d="M6.11949 13.8927H1.28404C1.183 13.8927 1.08611 13.854 1.01467 13.7851C0.943227 13.7162 0.903092 13.6227 0.903092 13.5252C0.903092 13.4278 0.943227 13.3343 1.01467 13.2654C1.08611 13.1964 1.183 13.1577 1.28404 13.1577H6.11949C6.22052 13.1577 6.31742 13.1964 6.38886 13.2654C6.4603 13.3343 6.50043 13.4278 6.50043 13.5252C6.50043 13.6227 6.4603 13.7162 6.38886 13.7851C6.31742 13.854 6.22052 13.8927 6.11949 13.8927ZM9.97211 12.2214H3.22533C3.1243 12.2214 3.0274 12.1826 2.95596 12.1137C2.88452 12.0448 2.84438 11.9513 2.84438 11.8539C2.84438 11.7564 2.88452 11.6629 2.95596 11.594C3.0274 11.5251 3.1243 11.4864 3.22533 11.4864H9.97211C10.0731 11.4864 10.17 11.5251 10.2415 11.594C10.3129 11.6629 10.353 11.7564 10.353 11.8539C10.353 11.9513 10.3129 12.0448 10.2415 12.1137C10.17 12.1826 10.0731 12.2214 9.97211 12.2214ZM3.01555 10.281H0.380944C0.279912 10.281 0.183017 10.2423 0.111576 10.1734C0.0401351 10.1044 0 10.011 0 9.91351C0 9.81604 0.0401351 9.72257 0.111576 9.65365C0.183017 9.58474 0.279912 9.54602 0.380944 9.54602H3.01555C3.11659 9.54602 3.21348 9.58474 3.28492 9.65365C3.35636 9.72257 3.3965 9.81604 3.3965 9.91351C3.3965 10.011 3.35636 10.1044 3.28492 10.1734C3.21348 10.2423 3.11659 10.281 3.01555 10.281ZM7.23997 8.25097H2.58941C2.48837 8.25097 2.39148 8.21226 2.32004 8.14334C2.2486 8.07442 2.20846 7.98095 2.20846 7.88348C2.20846 7.78602 2.2486 7.69255 2.32004 7.62363C2.39148 7.55471 2.48837 7.51599 2.58941 7.51599H7.23997C7.34101 7.51599 7.4379 7.55471 7.50934 7.62363C7.58078 7.69255 7.62092 7.78602 7.62092 7.88348C7.62092 7.98095 7.58078 8.07442 7.50934 8.14334C7.4379 8.21226 7.34101 8.25097 7.23997 8.25097Z" fill="#A5B4FC"/>
</svg>
