<svg width="24" height="24" viewBox="0 0 24 24" fill="none" xmlns="http://www.w3.org/2000/svg">
<path fill-rule="evenodd" clip-rule="evenodd" d="M6.66441 20.4428C3.4245 19.3238 2.70199 16.7076 2.61863 13.55C2.5992 12.8145 2.61547 12.0835 2.63473 11.3484C4.06495 11.0992 5.43454 10.6402 6.69029 9.8947C7.44733 10.3438 8.21434 10.6743 9.0501 10.9383C9.10827 10.9567 9.1199 11.0282 9.24199 11.0282C9.3011 11.0282 9.28875 11.0118 9.32982 11.0235C9.82203 11.1637 10.238 11.2598 10.7463 11.3484C10.7926 13.104 10.8316 15.0963 10.3134 16.7743C9.72856 18.6679 8.54956 19.8098 6.71617 20.4428H6.66441ZM9.31251 13.3793C9.27086 13.3368 9.2144 13.313 9.15553 13.313C9.09666 13.313 9.04021 13.3369 8.99857 13.3794L6.14893 16.2899L4.80279 14.9151C4.78219 14.894 4.75773 14.8772 4.73079 14.8658C4.70386 14.8544 4.67499 14.8485 4.64583 14.8485C4.61668 14.8485 4.5878 14.8544 4.56087 14.8658C4.53393 14.8772 4.50946 14.8939 4.48886 14.915C4.4682 14.9361 4.45181 14.9611 4.44062 14.9887C4.42944 15.0163 4.42369 15.0458 4.42369 15.0756C4.42369 15.1055 4.42944 15.135 4.44062 15.1626C4.45181 15.1901 4.4682 15.2152 4.48886 15.2363L5.99185 16.7717C6.01249 16.7928 6.037 16.8095 6.06398 16.821C6.09096 16.8324 6.11988 16.8383 6.14909 16.8383C6.1783 16.8383 6.20722 16.8324 6.2342 16.821C6.26118 16.8095 6.28569 16.7928 6.30633 16.7717L9.31255 13.7004C9.33321 13.6793 9.3496 13.6543 9.36079 13.6267C9.37197 13.5992 9.37772 13.5697 9.37772 13.5398C9.37771 13.51 9.37195 13.4805 9.36076 13.453C9.34957 13.4254 9.33317 13.4004 9.31251 13.3793ZM10.8084 8.37193V6.15767C10.8086 6.11937 10.8236 6.08269 10.8501 6.05561C10.8766 6.02853 10.9125 6.01323 10.95 6.01305H16.2228V8.37193H10.8084ZM16.6672 3.68112C16.6674 3.64282 16.6824 3.60614 16.7089 3.57906C16.7354 3.55198 16.7713 3.53668 16.8088 3.5365H19.3138C19.3513 3.53668 19.3872 3.55198 19.4137 3.57906C19.4402 3.60614 19.4552 3.64282 19.4554 3.68112V8.37193H16.6672V3.68112ZM6.00272 7.16925C6.00272 7.28767 5.90533 7.38227 5.81259 7.43828C5.69077 7.51188 5.54171 7.54578 5.401 7.54578H3.12684C2.98622 7.54578 2.83721 7.51183 2.71547 7.43823C2.62278 7.38223 2.52539 7.28767 2.52539 7.16925V6.85546C2.52539 6.73713 2.62282 6.64262 2.71547 6.58666C2.83725 6.51311 2.98622 6.47916 3.12684 6.47916L5.18607 6.48045C5.22471 6.48745 5.23485 6.49906 5.27917 6.49851L5.82724 6.49413C5.88779 6.51034 5.9878 6.56234 6.00272 6.61264V7.16925Z" fill="#C4B5FD"/>
<path fill-rule="evenodd" clip-rule="evenodd" d="M9.36972 13.321C9.39789 13.3497 9.42024 13.3839 9.43549 13.4214C9.45074 13.459 9.45858 13.4992 9.45858 13.5399C9.45858 13.5805 9.45074 13.6208 9.43549 13.6584C9.42024 13.6959 9.39789 13.73 9.36972 13.7587L6.3635 16.8301C6.33535 16.8588 6.30193 16.8816 6.26515 16.8972C6.22837 16.9128 6.18895 16.9208 6.14914 16.9208C6.10932 16.9208 6.0699 16.9128 6.03312 16.8972C5.99634 16.8816 5.96292 16.8588 5.93477 16.8301L4.43178 15.2947C4.4036 15.2659 4.38126 15.2318 4.36601 15.1942C4.35076 15.1566 4.34291 15.1163 4.34291 15.0757C4.34291 15.035 4.35076 14.9947 4.36601 14.9571C4.38126 14.9196 4.4036 14.8854 4.43178 14.8567C4.54972 14.7356 4.74174 14.7356 4.86001 14.8567L6.14902 16.1732L8.94154 13.321C9.05971 13.2002 9.25173 13.2002 9.36972 13.321ZM17.1926 13.1421V10.6655C17.1926 10.4944 17.3285 10.3559 17.4957 10.3559C17.663 10.3559 17.7986 10.4944 17.7986 10.6655V13.1421C17.7986 13.313 17.663 13.4514 17.4957 13.4514C17.3285 13.4514 17.1926 13.3129 17.1926 13.1421ZM14.7683 13.1421V10.6655C14.7683 10.5834 14.8002 10.5047 14.8571 10.4467C14.9139 10.3886 14.9909 10.356 15.0713 10.356C15.1516 10.356 15.2287 10.3886 15.2855 10.4467C15.3424 10.5047 15.3743 10.5834 15.3743 10.6655V13.1421C15.3743 13.2241 15.3424 13.3028 15.2856 13.3608C15.2288 13.4189 15.1517 13.4514 15.0714 13.4514C15.0316 13.4515 14.9922 13.4435 14.9555 13.4279C14.9187 13.4124 14.8853 13.3896 14.8571 13.3609C14.829 13.3322 14.8067 13.2981 14.7914 13.2605C14.7762 13.223 14.7683 13.1827 14.7683 13.1421ZM12.344 13.1421V10.6655C12.344 10.6249 12.3518 10.5846 12.367 10.5471C12.3822 10.5095 12.4045 10.4754 12.4327 10.4466C12.4608 10.4179 12.4942 10.395 12.5309 10.3795C12.5677 10.3639 12.6071 10.3559 12.6469 10.3559C12.7273 10.3559 12.8043 10.3885 12.8612 10.4466C12.918 10.5046 12.95 10.5834 12.95 10.6655V13.1421C12.9499 13.2242 12.918 13.3029 12.8611 13.3609C12.8043 13.4189 12.7272 13.4515 12.6469 13.4514C12.5665 13.4514 12.4895 13.4188 12.4327 13.3608C12.3759 13.3028 12.344 13.2241 12.344 13.1421ZM18.5378 18.2084C18.5378 18.6808 18.1611 19.0656 17.6979 19.0656C17.235 19.0656 16.8583 18.6808 16.8583 18.2084C16.8583 17.7352 17.235 17.3504 17.6979 17.3504C18.1611 17.3504 18.5378 17.7352 18.5378 18.2084ZM13.1962 18.2084C13.1962 18.6808 12.8195 19.0656 12.3566 19.0656C11.8939 19.0656 11.517 18.6808 11.517 18.2084C11.517 17.7352 11.8938 17.3504 12.3566 17.3504C12.8195 17.3504 13.1962 17.7352 13.1962 18.2084ZM6.69033 20.3646C8.54496 19.7242 9.67306 18.5736 10.2364 16.7494C10.7402 15.1183 10.7136 13.1704 10.6674 11.4183C10.2906 11.3525 9.91679 11.2695 9.54718 11.1697C9.46702 11.1483 9.38785 11.1256 9.30818 11.1029C9.28648 11.108 9.2643 11.1107 9.24204 11.1108C9.16084 11.1108 9.08293 11.0761 9.02625 11.0171C8.17647 10.7487 7.37975 10.3992 6.69033 9.99017C5.53188 10.6777 4.10995 11.1749 2.71376 11.4183C2.66782 13.1705 2.64045 15.1183 3.14452 16.7495C3.7081 18.5736 4.8362 19.7242 6.69033 20.3646ZM21.0959 8.90863H8.87995L9.45705 10.5024C9.98217 10.6543 10.4747 10.7649 11.008 10.8465C11.1531 10.8689 11.2624 10.9944 11.2662 11.1441C11.2986 12.342 11.3334 13.642 11.2064 14.8986L17.8573 14.8991C18.4742 14.8991 18.9972 14.5576 19.2564 13.9856L21.3648 9.33923C21.3863 9.29311 21.3959 9.24217 21.3928 9.1912C21.3897 9.14023 21.374 9.09089 21.3471 9.04784C21.3202 9.00478 21.2831 8.96942 21.2391 8.94507C21.1952 8.92071 21.1459 8.90818 21.0959 8.90863ZM10.8893 6.15766C10.8893 6.12376 10.9172 6.09558 10.9501 6.09558H16.1421V8.28938H10.8893V6.15766ZM16.8088 3.61902H19.3138C19.3468 3.61902 19.3746 3.64721 19.3746 3.68111V8.28938H16.7481V3.68111C16.7481 3.64721 16.7759 3.61902 16.8088 3.61902ZM5.92197 6.63764V7.16924C5.92197 7.30516 5.69446 7.46323 5.40104 7.46323H3.12689C2.83374 7.46323 2.60623 7.30516 2.60623 7.16924V6.85544C2.60623 6.7198 2.83374 6.56173 3.12689 6.56173H5.172C5.19779 6.56643 5.21497 6.58149 5.28026 6.58103L5.80677 6.57398C5.87012 6.59093 5.91074 6.62041 5.92197 6.63764ZM17.8573 15.5182C18.7163 15.5182 19.4451 15.0426 19.8064 14.2462L21.9148 9.59964C22.193 8.98734 21.7559 8.28938 21.0959 8.28938H19.9805V3.68111C19.9805 3.30546 19.6815 3 19.3138 3H16.8088C16.4411 3 16.1421 3.30546 16.1421 3.68111V5.47655H10.9501C10.5821 5.47655 10.2833 5.78201 10.2833 6.15766V8.28938H8.65623L8.16262 6.92642C7.94585 6.32725 7.4045 5.94248 6.78041 5.94248C6.77401 5.94248 6.76711 5.94248 6.76076 5.94298L5.86088 5.95445C5.81084 5.9467 5.76031 5.94268 5.7097 5.94243H3.12689C2.49514 5.94243 2 6.34365 2 6.85544V7.16924C2 7.68104 2.49514 8.08225 3.12689 8.08225H5.40104C6.03302 8.08225 6.52788 7.68104 6.52788 7.16924L6.52432 6.56486L6.78046 6.56173C7.1535 6.56173 7.46455 6.78295 7.59427 7.1411L8.72417 10.263C8.03909 10.0142 7.40224 9.71027 6.84813 9.36567C6.80062 9.33611 6.74607 9.32048 6.69044 9.32048C6.63482 9.32048 6.58027 9.33611 6.53275 9.36567C5.34135 10.106 3.83321 10.6235 2.37309 10.8465C2.30271 10.8573 2.23829 10.893 2.1911 10.9475C2.1439 11.0019 2.11694 11.0715 2.11493 11.1442C2.06438 13.0103 2.00744 15.1253 2.56665 16.9357C3.19479 18.9693 4.51343 20.2939 6.59709 20.9849C6.65792 21.005 6.72341 21.005 6.78425 20.9849C8.72643 20.3406 10.0035 19.1456 10.6768 17.3395C10.8101 17.3572 11.0402 17.3504 11.1806 17.3504C10.4997 18.324 11.1821 19.6846 12.3565 19.6846C13.5338 19.6846 14.2119 18.3195 13.5321 17.3504H16.5223C15.8425 18.3194 16.5205 19.6846 17.6979 19.6846C18.8727 19.6846 19.5545 18.3238 18.8738 17.3504H20.0305C20.1983 17.3504 20.3336 17.2119 20.3336 17.041C20.3336 16.8702 20.1983 16.7314 20.0305 16.7314H10.8745C10.9848 16.338 11.0678 15.9319 11.1298 15.5179L17.8573 15.5182Z" fill="#8B5CF6"/>
</svg>
