<svg width="24" height="24" viewBox="0 0 24 24" fill="none" xmlns="http://www.w3.org/2000/svg">
<path d="M11.4086 2L2 6.75613V17.6817L12.7174 22H12.7217V21.9978L22 16.5346V5.61075L11.4086 2Z" fill="#DDD6FE"/>
<path d="M22 5.61075L11.4086 2L2 6.75613V17.6817L12.7174 22H12.7217V11.071L12.7196 11.0701L22 5.61075Z" fill="#C4B5FD"/>
<path d="M12.7217 11.0709V22H12.7174L2 17.6817V6.75696L3.26062 7.26448L12.7217 11.0709Z" fill="#8B5CF6"/>
<path d="M12.7217 11.071V20.4989L5.67085 17.6559C4.9591 17.3687 4.34946 16.8753 3.92016 16.2393C3.49085 15.6032 3.26148 14.8534 3.26147 14.086V7.26453L12.7217 11.071Z" fill="#A78BFA"/>
<path d="M17.4932 4.07312L17.3039 4.17635L8.1483 9.23011L8.13109 12.7441L6.68116 12.2022L5.73462 11.8452V8.26237L15.2775 3.32043L17.4932 4.07312Z" fill="#5B21B6"/>
<path d="M17.3146 4.17638L8.15891 9.23015L8.1417 12.7441L6.69177 12.2022V8.75273L16.2389 3.81079L17.3146 4.17638Z" fill="#6D28D9"/>
</svg>
